{
    "accessors" : [
        {
            "bufferView" : 0, 
            "componentType" : 5123, 
            "count" : 17982, 
            "max" : [
                11300
            ], 
            "min" : [
                0
            ], 
            "type" : "SCALAR"
        }, 
        {
            "bufferView" : 1, 
            "componentType" : 5126, 
            "count" : 11301, 
            "max" : [
                0.6253054141998291, 
                0.6399720907211304, 
                0.2246347963809967
            ], 
            "min" : [
                -0.6621571183204651, 
                -0.5919191241264343, 
                -0.48772358894348145
            ], 
            "type" : "VEC3"
        }, 
        {
            "bufferView" : 2, 
            "componentType" : 5126, 
            "count" : 11301, 
            "max" : [
                0.99969482421875, 
                0.9996337890625, 
                1.0
            ], 
            "min" : [
                -0.9993896484375, 
                -0.9996337890625, 
                -1.0
            ], 
            "type" : "VEC3"
        }, 
        {
            "bufferView" : 3, 
            "componentType" : 5126, 
            "count" : 11301, 
            "max" : [
                0.1606682986021042, 
                1.119651697576046
            ], 
            "min" : [
                -0.16104300320148468, 
                0.8165711015462875
            ], 
            "type" : "VEC2"
        }, 
        {
            "bufferView" : 4, 
            "componentType" : 5123, 
            "count" : 4956, 
            "max" : [
                3323
            ], 
            "min" : [
                0
            ], 
            "type" : "SCALAR"
        }, 
        {
            "bufferView" : 5, 
            "componentType" : 5126, 
            "count" : 3324, 
            "max" : [
                0.5672271251678467, 
                0.6026372909545898, 
                0.20012620091438293
            ], 
            "min" : [
                -0.6217473149299622, 
                -0.5568956136703491, 
                -0.21194510161876678
            ], 
            "type" : "VEC3"
        }, 
        {
            "bufferView" : 6, 
            "componentType" : 5126, 
            "count" : 3324, 
            "max" : [
                0.999847412109375, 
                0.999969482421875, 
                0.99993896484375
            ], 
            "min" : [
                -0.999847412109375, 
                -0.99993896484375, 
                -0.99993896484375
            ], 
            "type" : "VEC3"
        }, 
        {
            "bufferView" : 7, 
            "componentType" : 5126, 
            "count" : 3324, 
            "max" : [
                0.14802730083465576, 
                1.1394450068473816
            ], 
            "min" : [
                -0.14802730083465576, 
                0.8361019939184189
            ], 
            "type" : "VEC2"
        }, 
        {
            "bufferView" : 8, 
            "componentType" : 5121, 
            "count" : 108, 
            "max" : [
                107
            ], 
            "min" : [
                0
            ], 
            "type" : "SCALAR"
        }, 
        {
            "bufferView" : 9, 
            "componentType" : 5126, 
            "count" : 108, 
            "max" : [
                0.10059849917888641, 
                0.09659851342439651, 
                -0.28424909710884094
            ], 
            "min" : [
                -0.058909278362989426, 
                -0.08536264300346375, 
                -0.6387708187103271
            ], 
            "type" : "VEC3"
        }, 
        {
            "bufferView" : 10, 
            "componentType" : 5126, 
            "count" : 108, 
            "max" : [
                0.940031111240387, 
                0.9114353060722351, 
                0.6983245611190796
            ], 
            "min" : [
                -0.9892879724502563, 
                -0.9551683068275452, 
                -0.634998619556427
            ], 
            "type" : "VEC3"
        }, 
        {
            "bufferView" : 11, 
            "componentType" : 5126, 
            "count" : 108, 
            "max" : [
                0.16265690326690674, 
                1.0199274402111769
            ], 
            "min" : [
                -0.17093360424041748, 
                0.8264126032590866
            ], 
            "type" : "VEC2"
        }, 
        {
            "bufferView" : 12, 
            "componentType" : 5123, 
            "count" : 10620, 
            "max" : [
                7087
            ], 
            "min" : [
                0
            ], 
            "type" : "SCALAR"
        }, 
        {
            "bufferView" : 13, 
            "componentType" : 5126, 
            "count" : 7088, 
            "max" : [
                0.6418961882591248, 
                0.6583009958267212, 
                0.1745534986257553
            ], 
            "min" : [
                -0.634485125541687, 
                -0.6058136224746704, 
                -0.23454369604587555
            ], 
            "type" : "VEC3"
        }, 
        {
            "bufferView" : 14, 
            "componentType" : 5126, 
            "count" : 7088, 
            "max" : [
                0.9998779296875, 
                0.9998779296875, 
                0.999664306640625
            ], 
            "min" : [
                -0.9998779296875, 
                -0.9998779296875, 
                -0.9993896484375
            ], 
            "type" : "VEC3"
        }, 
        {
            "bufferView" : 15, 
            "componentType" : 5126, 
            "count" : 7088, 
            "max" : [
                0.14934979379177094, 
                1.133496806025505
            ], 
            "min" : [
                -0.14976470172405243, 
                0.8204246014356613
            ], 
            "type" : "VEC2"
        }, 
        {
            "bufferView" : 16, 
            "componentType" : 5123, 
            "count" : 4896, 
            "max" : [
                3215
            ], 
            "min" : [
                0
            ], 
            "type" : "SCALAR"
        }, 
        {
            "bufferView" : 17, 
            "componentType" : 5126, 
            "count" : 3216, 
            "max" : [
                0.20809990167617798, 
                0.18552599847316742, 
                -0.1951189935207367
            ], 
            "min" : [
                -0.1808898001909256, 
                -0.24964089691638947, 
                -0.7617679238319397
            ], 
            "type" : "VEC3"
        }, 
        {
            "bufferView" : 18, 
            "componentType" : 5126, 
            "count" : 3216, 
            "max" : [
                0.9962157011032104, 
                0.99920654296875, 
                0.9972533583641052
            ], 
            "min" : [
                -0.9962157011032104, 
                -0.9988402724266052, 
                -0.9932554364204407
            ], 
            "type" : "VEC3"
        }, 
        {
            "bufferView" : 19, 
            "componentType" : 5126, 
            "count" : 3216, 
            "max" : [
                0.16754360496997833, 
                1.078241303563118
            ], 
            "min" : [
                -0.17274689674377441, 
                0.7969318926334381
            ], 
            "type" : "VEC2"
        }, 
        {
            "bufferView" : 20, 
            "componentType" : 5121, 
            "count" : 36, 
            "max" : [
                31
            ], 
            "min" : [
                0
            ], 
            "type" : "SCALAR"
        }, 
        {
            "bufferView" : 21, 
            "componentType" : 5126, 
            "count" : 32, 
            "max" : [
                0.9503844976425171, 
                0.9158400893211365, 
                0.3617897033691406
            ], 
            "min" : [
                -1.019618034362793, 
                -0.8441615104675293, 
                0.1015440970659256
            ], 
            "type" : "VEC3"
        }, 
        {
            "bufferView" : 22, 
            "componentType" : 5126, 
            "count" : 32, 
            "max" : [
                0.5874508023262024, 
                0.617053747177124, 
                0.999908447265625
            ], 
            "min" : [
                -0.5775017738342285, 
                -0.7791375517845154, 
                -1.0
            ], 
            "type" : "VEC3"
        }, 
        {
            "bufferView" : 23, 
            "componentType" : 5126, 
            "count" : 32, 
            "max" : [
                0.12104389816522598, 
                1.0870822668075562
            ], 
            "min" : [
                -0.13631810247898102, 
                0.8629336059093475
            ], 
            "type" : "VEC2"
        }, 
        {
            "bufferView" : 24, 
            "componentType" : 5123, 
            "count" : 936, 
            "max" : [
                718
            ], 
            "min" : [
                0
            ], 
            "type" : "SCALAR"
        }, 
        {
            "bufferView" : 25, 
            "componentType" : 5126, 
            "count" : 719, 
            "max" : [
                0.661142885684967, 
                0.7610856890678406, 
                0.22356680035591125
            ], 
            "min" : [
                -0.6593735218048096, 
                -0.6025756001472473, 
                -0.14789900183677673
            ], 
            "type" : "VEC3"
        }, 
        {
            "bufferView" : 26, 
            "componentType" : 5126, 
            "count" : 719, 
            "max" : [
                0.9998779296875, 
                0.999755859375, 
                0.999847412109375
            ], 
            "min" : [
                -0.9998779296875, 
                -0.999755859375, 
                -0.999847412109375
            ], 
            "type" : "VEC3"
        }, 
        {
            "bufferView" : 27, 
            "componentType" : 5126, 
            "count" : 719, 
            "max" : [
                0.1450497955083847, 
                1.1113096997141838
            ], 
            "min" : [
                -0.14975810050964355, 
                0.8227308988571167
            ], 
            "type" : "VEC2"
        }
    ], 
    "asset" : {
        "generator" : "Khronos Blender glTF 2.0 exporter", 
        "version" : "2.0"
    }, 
    "bufferViews" : [
        {
            "buffer" : 0, 
            "byteLength" : 35964, 
            "byteOffset" : 0, 
            "target" : 34963
        }, 
        {
            "buffer" : 0, 
            "byteLength" : 135612, 
            "byteOffset" : 35964, 
            "target" : 34962
        }, 
        {
            "buffer" : 0, 
            "byteLength" : 135612, 
            "byteOffset" : 171576, 
            "target" : 34962
        }, 
        {
            "buffer" : 0, 
            "byteLength" : 90408, 
            "byteOffset" : 307188, 
            "target" : 34962
        }, 
        {
            "buffer" : 0, 
            "byteLength" : 9912, 
            "byteOffset" : 397596, 
            "target" : 34963
        }, 
        {
            "buffer" : 0, 
            "byteLength" : 39888, 
            "byteOffset" : 407508, 
            "target" : 34962
        }, 
        {
            "buffer" : 0, 
            "byteLength" : 39888, 
            "byteOffset" : 447396, 
            "target" : 34962
        }, 
        {
            "buffer" : 0, 
            "byteLength" : 26592, 
            "byteOffset" : 487284, 
            "target" : 34962
        }, 
        {
            "buffer" : 0, 
            "byteLength" : 108, 
            "byteOffset" : 513876, 
            "target" : 34963
        }, 
        {
            "buffer" : 0, 
            "byteLength" : 1296, 
            "byteOffset" : 513984, 
            "target" : 34962
        }, 
        {
            "buffer" : 0, 
            "byteLength" : 1296, 
            "byteOffset" : 515280, 
            "target" : 34962
        }, 
        {
            "buffer" : 0, 
            "byteLength" : 864, 
            "byteOffset" : 516576, 
            "target" : 34962
        }, 
        {
            "buffer" : 0, 
            "byteLength" : 21240, 
            "byteOffset" : 517440, 
            "target" : 34963
        }, 
        {
            "buffer" : 0, 
            "byteLength" : 85056, 
            "byteOffset" : 538680, 
            "target" : 34962
        }, 
        {
            "buffer" : 0, 
            "byteLength" : 85056, 
            "byteOffset" : 623736, 
            "target" : 34962
        }, 
        {
            "buffer" : 0, 
            "byteLength" : 56704, 
            "byteOffset" : 708792, 
            "target" : 34962
        }, 
        {
            "buffer" : 0, 
            "byteLength" : 9792, 
            "byteOffset" : 765496, 
            "target" : 34963
        }, 
        {
            "buffer" : 0, 
            "byteLength" : 38592, 
            "byteOffset" : 775288, 
            "target" : 34962
        }, 
        {
            "buffer" : 0, 
            "byteLength" : 38592, 
            "byteOffset" : 813880, 
            "target" : 34962
        }, 
        {
            "buffer" : 0, 
            "byteLength" : 25728, 
            "byteOffset" : 852472, 
            "target" : 34962
        }, 
        {
            "buffer" : 0, 
            "byteLength" : 36, 
            "byteOffset" : 878200, 
            "target" : 34963
        }, 
        {
            "buffer" : 0, 
            "byteLength" : 384, 
            "byteOffset" : 878236, 
            "target" : 34962
        }, 
        {
            "buffer" : 0, 
            "byteLength" : 384, 
            "byteOffset" : 878620, 
            "target" : 34962
        }, 
        {
            "buffer" : 0, 
            "byteLength" : 256, 
            "byteOffset" : 879004, 
            "target" : 34962
        }, 
        {
            "buffer" : 0, 
            "byteLength" : 1872, 
            "byteOffset" : 879260, 
            "target" : 34963
        }, 
        {
            "buffer" : 0, 
            "byteLength" : 8628, 
            "byteOffset" : 881132, 
            "target" : 34962
        }, 
        {
            "buffer" : 0, 
            "byteLength" : 8628, 
            "byteOffset" : 889760, 
            "target" : 34962
        }, 
        {
            "buffer" : 0, 
            "byteLength" : 5752, 
            "byteOffset" : 898388, 
            "target" : 34962
        }
    ], 
    "buffers" : [
        {
            "byteLength" : 904140, 
            "uri" : "scene.bin"
        }
    ], 
    "cameras" : [
        {
            "name" : "Camera", 
            "perspective" : {
                "aspectRatio" : 1.7777777777777777, 
                "yfov" : 0.5033799372418416, 
                "zfar" : 100.0, 
                "znear" : 0.10000000149011612
            }, 
            "type" : "perspective"
        }
    ], 
    "materials" : [
        {
            "name" : "mat16", 
            "pbrMetallicRoughness" : {
                "baseColorFactor" : [
                    0.4699999988079071, 
                    0.5600000023841858, 
                    0.6100000143051147, 
                    1.0
                ], 
                "metallicFactor" : 0.0
            }
        }, 
        {
            "name" : "mat17", 
            "pbrMetallicRoughness" : {
                "baseColorFactor" : [
                    0.27000001072883606, 
                    0.3499999940395355, 
                    0.38999998569488525, 
                    1.0
                ], 
                "metallicFactor" : 0.0
            }
        }, 
        {
            "name" : "mat18", 
            "pbrMetallicRoughness" : {
                "baseColorFactor" : [
                    1.0, 
                    0.800000011920929, 
                    0.5299999713897705, 
                    1.0
                ], 
                "metallicFactor" : 0.0
            }
        }, 
        {
            "name" : "mat20", 
            "pbrMetallicRoughness" : {
                "baseColorFactor" : [
                    0.4699999988079071, 
                    0.33000001311302185, 
                    0.2800000011920929, 
                    1.0
                ], 
                "metallicFactor" : 0.0
            }
        }, 
        {
            "name" : "mat22", 
            "pbrMetallicRoughness" : {
                "baseColorFactor" : [
                    0.6200000047683716, 
                    0.6200000047683716, 
                    0.6200000047683716, 
                    1.0
                ], 
                "metallicFactor" : 0.0
            }
        }, 
        {
            "name" : "mat23", 
            "pbrMetallicRoughness" : {
                "baseColorFactor" : [
                    0.10000000149011612, 
                    0.10000000149011612, 
                    0.10000000149011612, 
                    1.0
                ], 
                "metallicFactor" : 0.0
            }
        }, 
        {
            "alphaMode" : "BLEND", 
            "name" : "mat25", 
            "pbrMetallicRoughness" : {
                "baseColorFactor" : [
                    0.9200000166893005, 
                    0.949999988079071, 
                    0.9399999976158142, 
                    0.4000000059604645
                ], 
                "metallicFactor" : 0.0
            }
        }
    ], 
    "meshes" : [
        {
            "name" : "mesh1003231138", 
            "primitives" : [
                {
                    "attributes" : {
                        "NORMAL" : 2, 
                        "POSITION" : 1, 
                        "TEXCOORD_0" : 3
                    }, 
                    "indices" : 0, 
                    "material" : 1
                }, 
                {
                    "attributes" : {
                        "NORMAL" : 6, 
                        "POSITION" : 5, 
                        "TEXCOORD_0" : 7
                    }, 
                    "indices" : 4, 
                    "material" : 0
                }, 
                {
                    "attributes" : {
                        "NORMAL" : 10, 
                        "POSITION" : 9, 
                        "TEXCOORD_0" : 11
                    }, 
                    "indices" : 8, 
                    "material" : 6
                }, 
                {
                    "attributes" : {
                        "NORMAL" : 14, 
                        "POSITION" : 13, 
                        "TEXCOORD_0" : 15
                    }, 
                    "indices" : 12, 
                    "material" : 3
                }, 
                {
                    "attributes" : {
                        "NORMAL" : 18, 
                        "POSITION" : 17, 
                        "TEXCOORD_0" : 19
                    }, 
                    "indices" : 16, 
                    "material" : 4
                }, 
                {
                    "attributes" : {
                        "NORMAL" : 22, 
                        "POSITION" : 21, 
                        "TEXCOORD_0" : 23
                    }, 
                    "indices" : 20, 
                    "material" : 2
                }, 
                {
                    "attributes" : {
                        "NORMAL" : 26, 
                        "POSITION" : 25, 
                        "TEXCOORD_0" : 27
                    }, 
                    "indices" : 24, 
                    "material" : 5
                }
            ]
        }
    ], 
    "nodes" : [
        {
            "camera" : 0, 
            "name" : "Correction_Camera", 
            "rotation" : [
                -0.7071067690849304, 
                -0.0, 
                0.0, 
                0.7071067690849304
            ]
        }, 
        {
            "children" : [
                0
            ], 
            "name" : "Camera", 
            "rotation" : [
                0.48170700669288635, 
                0.3342514932155609, 
                -0.21292175352573395, 
                0.7816000580787659
            ], 
            "scale" : [
                1.0, 
                1.0, 
                0.9999999403953552
            ], 
            "translation" : [
                7.481131553649902, 
                5.34366512298584, 
                6.5076398849487305
            ]
        }, 
        {
            "name" : "Lamp", 
            "rotation" : [
                0.16907575726509094, 
                0.7558802962303162, 
                -0.27217137813568115, 
                0.570947527885437
            ], 
            "scale" : [
                1.0, 
                1.0, 
                0.9999999403953552
            ], 
            "translation" : [
                4.076245307922363, 
                5.903861999511719, 
                -1.0054539442062378
            ]
        }, 
        {
            "mesh" : 0, 
            "name" : "mesh1003231138", 
            "rotation" : [
                0.7071068286895752, 
                0.0, 
                -0.0, 
                0.7071067094802856
            ], 
            "translation" : [
                0.0, 
                0.3494945764541626, 
                -0.0
            ]
        }
    ], 
    "scene" : 0, 
    "scenes" : [
        {
            "name" : "Scene", 
            "nodes" : [
                3, 
                2, 
                1
            ]
        }
    ]
}
