{
    "accessors" : [
        {
            "bufferView" : 0, 
            "componentType" : 5123, 
            "count" : 528, 
            "max" : [
                505
            ], 
            "min" : [
                0
            ], 
            "type" : "SCALAR"
        }, 
        {
            "bufferView" : 1, 
            "componentType" : 5126, 
            "count" : 506, 
            "max" : [
                0.15666210651397705, 
                0.13892659544944763, 
                0.022757770493626595
            ], 
            "min" : [
                -0.08366304636001587, 
                -0.3460127115249634, 
                -0.017902370542287827
            ], 
            "type" : "VEC3"
        }, 
        {
            "bufferView" : 2, 
            "componentType" : 5126, 
            "count" : 506, 
            "max" : [
                0.9269692301750183, 
                0.9466231465339661, 
                0.9789116978645325
            ], 
            "min" : [
                -0.9269692301750183, 
                -0.9466231465339661, 
                -0.9789116978645325
            ], 
            "type" : "VEC3"
        }, 
        {
            "bufferView" : 3, 
            "componentType" : 5126, 
            "count" : 506, 
            "max" : [
                0.5230679512023926, 
                0.9524961113929749, 
                0.881081223487854, 
                1.0
            ], 
            "min" : [
                -0.5230682492256165, 
                -0.9524722099304199, 
                -0.881074845790863, 
                1.0
            ], 
            "type" : "VEC4"
        }, 
        {
            "bufferView" : 4, 
            "componentType" : 5126, 
            "count" : 506, 
            "max" : [
                0.6309301257133484, 
                0.5244263112545013
            ], 
            "min" : [
                0.369069904088974, 
                0.3849043846130371
            ], 
            "type" : "VEC2"
        }, 
        {
            "bufferView" : 5, 
            "componentType" : 5123, 
            "count" : 792, 
            "max" : [
                783
            ], 
            "min" : [
                0
            ], 
            "type" : "SCALAR"
        }, 
        {
            "bufferView" : 6, 
            "componentType" : 5126, 
            "count" : 784, 
            "max" : [
                0.0714876726269722, 
                0.1557987928390503, 
                0.011276479810476303
            ], 
            "min" : [
                -0.08704560995101929, 
                -0.11224730312824249, 
                -0.016346929594874382
            ], 
            "type" : "VEC3"
        }, 
        {
            "bufferView" : 7, 
            "componentType" : 5126, 
            "count" : 784, 
            "max" : [
                0.9269692301750183, 
                0.9466536641120911, 
                0.9789116978645325
            ], 
            "min" : [
                -0.9269692301750183, 
                -0.9466536641120911, 
                -0.9789116978645325
            ], 
            "type" : "VEC3"
        }, 
        {
            "bufferView" : 8, 
            "componentType" : 5126, 
            "count" : 784, 
            "max" : [
                0.5234877467155457, 
                0.9525535106658936, 
                0.8812736868858337, 
                1.0
            ], 
            "min" : [
                -0.5235117077827454, 
                -0.9525536894798279, 
                -0.8812702298164368, 
                1.0
            ], 
            "type" : "VEC4"
        }, 
        {
            "bufferView" : 9, 
            "componentType" : 5126, 
            "count" : 784, 
            "max" : [
                0.6278166174888611, 
                0.5252389013767242
            ], 
            "min" : [
                0.37218350172042847, 
                0.3933243751525879
            ], 
            "type" : "VEC2"
        }, 
        {
            "bufferView" : 10, 
            "componentType" : 5123, 
            "count" : 576, 
            "max" : [
                547
            ], 
            "min" : [
                0
            ], 
            "type" : "SCALAR"
        }, 
        {
            "bufferView" : 11, 
            "componentType" : 5126, 
            "count" : 548, 
            "max" : [
                0.19717630743980408, 
                -0.19379940629005432, 
                0.1012578010559082
            ], 
            "min" : [
                0.005353868007659912, 
                -0.38446080684661865, 
                -0.09533358365297318
            ], 
            "type" : "VEC3"
        }, 
        {
            "bufferView" : 12, 
            "componentType" : 5126, 
            "count" : 548, 
            "max" : [
                0.9962767362594604, 
                0.9977111220359802, 
                0.9921262264251709
            ], 
            "min" : [
                -0.9962767362594604, 
                -0.9977111220359802, 
                -0.9921262264251709
            ], 
            "type" : "VEC3"
        }, 
        {
            "bufferView" : 13, 
            "componentType" : 5126, 
            "count" : 548, 
            "max" : [
                0.5228431820869446, 
                0.9525642395019531, 
                0.9046685695648193, 
                1.0
            ], 
            "min" : [
                -0.5228627324104309, 
                -0.9525513052940369, 
                -0.9046540260314941, 
                1.0
            ], 
            "type" : "VEC4"
        }, 
        {
            "bufferView" : 14, 
            "componentType" : 5126, 
            "count" : 548, 
            "max" : [
                0.6302772760391235, 
                0.6086949110031128
            ], 
            "min" : [
                0.3698151111602783, 
                0.36396127939224243
            ], 
            "type" : "VEC2"
        }
    ], 
    "asset" : {
        "generator" : "Khronos Blender glTF 2.0 exporter", 
        "version" : "2.0"
    }, 
    "bufferViews" : [
        {
            "buffer" : 0, 
            "byteLength" : 1056, 
            "byteOffset" : 0, 
            "target" : 34963
        }, 
        {
            "buffer" : 0, 
            "byteLength" : 6072, 
            "byteOffset" : 1056, 
            "target" : 34962
        }, 
        {
            "buffer" : 0, 
            "byteLength" : 6072, 
            "byteOffset" : 7128, 
            "target" : 34962
        }, 
        {
            "buffer" : 0, 
            "byteLength" : 8096, 
            "byteOffset" : 13200, 
            "target" : 34962
        }, 
        {
            "buffer" : 0, 
            "byteLength" : 4048, 
            "byteOffset" : 21296, 
            "target" : 34962
        }, 
        {
            "buffer" : 0, 
            "byteLength" : 1584, 
            "byteOffset" : 25344, 
            "target" : 34963
        }, 
        {
            "buffer" : 0, 
            "byteLength" : 9408, 
            "byteOffset" : 26928, 
            "target" : 34962
        }, 
        {
            "buffer" : 0, 
            "byteLength" : 9408, 
            "byteOffset" : 36336, 
            "target" : 34962
        }, 
        {
            "buffer" : 0, 
            "byteLength" : 12544, 
            "byteOffset" : 45744, 
            "target" : 34962
        }, 
        {
            "buffer" : 0, 
            "byteLength" : 6272, 
            "byteOffset" : 58288, 
            "target" : 34962
        }, 
        {
            "buffer" : 0, 
            "byteLength" : 1152, 
            "byteOffset" : 64560, 
            "target" : 34963
        }, 
        {
            "buffer" : 0, 
            "byteLength" : 6576, 
            "byteOffset" : 65712, 
            "target" : 34962
        }, 
        {
            "buffer" : 0, 
            "byteLength" : 6576, 
            "byteOffset" : 72288, 
            "target" : 34962
        }, 
        {
            "buffer" : 0, 
            "byteLength" : 8768, 
            "byteOffset" : 78864, 
            "target" : 34962
        }, 
        {
            "buffer" : 0, 
            "byteLength" : 4384, 
            "byteOffset" : 87632, 
            "target" : 34962
        }
    ], 
    "buffers" : [
        {
            "byteLength" : 92016, 
            "uri" : "scene.bin"
        }
    ], 
    "cameras" : [
        {
            "name" : "Camera", 
            "perspective" : {
                "aspectRatio" : 1.7777777777777777, 
                "yfov" : 0.5033799372418416, 
                "zfar" : 100.0, 
                "znear" : 0.10000000149011612
            }, 
            "type" : "perspective"
        }
    ], 
    "materials" : [
        {
            "name" : "mat16", 
            "pbrMetallicRoughness" : {
                "baseColorFactor" : [
                    0.4699999988079071, 
                    0.5600000023841858, 
                    0.6100000143051147, 
                    1.0
                ], 
                "metallicFactor" : 0.0
            }
        }, 
        {
            "name" : "mat16.001", 
            "pbrMetallicRoughness" : {
                "baseColorFactor" : [
                    0.4699999988079071, 
                    0.5600000023841858, 
                    0.6100000143051147, 
                    1.0
                ], 
                "metallicFactor" : 0.0
            }
        }, 
        {
            "name" : "mat17", 
            "pbrMetallicRoughness" : {
                "baseColorFactor" : [
                    0.27000001072883606, 
                    0.3499999940395355, 
                    0.38999998569488525, 
                    1.0
                ], 
                "metallicFactor" : 0.0
            }
        }
    ], 
    "meshes" : [
        {
            "name" : "mesh728114662.001", 
            "primitives" : [
                {
                    "attributes" : {
                        "NORMAL" : 2, 
                        "POSITION" : 1, 
                        "TANGENT" : 3, 
                        "TEXCOORD_0" : 4
                    }, 
                    "indices" : 0, 
                    "material" : 2
                }, 
                {
                    "attributes" : {
                        "NORMAL" : 7, 
                        "POSITION" : 6, 
                        "TANGENT" : 8, 
                        "TEXCOORD_0" : 9
                    }, 
                    "indices" : 5, 
                    "material" : 0
                }, 
                {
                    "attributes" : {
                        "NORMAL" : 12, 
                        "POSITION" : 11, 
                        "TANGENT" : 13, 
                        "TEXCOORD_0" : 14
                    }, 
                    "indices" : 10, 
                    "material" : 1
                }
            ]
        }
    ], 
    "nodes" : [
        {
            "camera" : 0, 
            "name" : "Correction_Camera", 
            "rotation" : [
                -0.7071067690849304, 
                -0.0, 
                0.0, 
                0.7071067690849304
            ]
        }, 
        {
            "children" : [
                0
            ], 
            "name" : "Camera", 
            "rotation" : [
                0.48170700669288635, 
                0.3342514932155609, 
                -0.21292175352573395, 
                0.7816000580787659
            ], 
            "scale" : [
                1.0, 
                1.0, 
                0.9999999403953552
            ], 
            "translation" : [
                7.481131553649902, 
                5.34366512298584, 
                6.5076398849487305
            ]
        }, 
        {
            "name" : "Lamp", 
            "rotation" : [
                0.16907575726509094, 
                0.7558802962303162, 
                -0.27217137813568115, 
                0.570947527885437
            ], 
            "scale" : [
                1.0, 
                1.0, 
                0.9999999403953552
            ], 
            "translation" : [
                4.076245307922363, 
                5.903861999511719, 
                -1.0054539442062378
            ]
        }, 
        {
            "mesh" : 0, 
            "name" : "mesh728114662.001", 
            "rotation" : [
                0.6970252394676208, 
                0.12028644233942032, 
                -0.10243997722864151, 
                0.6994233727455139
            ], 
            "scale" : [
                0.9999999403953552, 
                1.0, 
                1.0
            ], 
            "translation" : [
                -0.001183927059173584, 
                0.003983808681368828, 
                0.30583757162094116
            ]
        }
    ], 
    "scene" : 0, 
    "scenes" : [
        {
            "name" : "Scene", 
            "nodes" : [
                2, 
                1, 
                3
            ]
        }
    ]
}
