{
    "accessors" : [
        {
            "bufferView" : 0, 
            "componentType" : 5123, 
            "count" : 17982, 
            "max" : [
                11299
            ], 
            "min" : [
                0
            ], 
            "type" : "SCALAR"
        }, 
        {
            "bufferView" : 1, 
            "componentType" : 5126, 
            "count" : 11300, 
            "max" : [
                0.5484750270843506, 
                0.5751649141311646, 
                0.274001806974411
            ], 
            "min" : [
                -0.5562366247177124, 
                -0.5557968020439148, 
                -0.4383564889431
            ], 
            "type" : "VEC3"
        }, 
        {
            "bufferView" : 2, 
            "componentType" : 5126, 
            "count" : 11300, 
            "max" : [
                1.0, 
                1.0, 
                1.0
            ], 
            "min" : [
                -1.0, 
                -1.0, 
                -1.0
            ], 
            "type" : "VEC3"
        }, 
        {
            "bufferView" : 3, 
            "componentType" : 5126, 
            "count" : 11300, 
            "max" : [
                0.1606682986021042, 
                1.1094193011522293
            ], 
            "min" : [
                -0.16104300320148468, 
                0.8165711015462875
            ], 
            "type" : "VEC2"
        }, 
        {
            "bufferView" : 4, 
            "componentType" : 5123, 
            "count" : 4956, 
            "max" : [
                3323
            ], 
            "min" : [
                0
            ], 
            "type" : "SCALAR"
        }, 
        {
            "bufferView" : 5, 
            "componentType" : 5126, 
            "count" : 3324, 
            "max" : [
                0.5365728139877319, 
                0.5632627010345459, 
                0.24949319660663605
            ], 
            "min" : [
                -0.5443342924118042, 
                -0.5438945293426514, 
                -0.16257800161838531
            ], 
            "type" : "VEC3"
        }, 
        {
            "bufferView" : 6, 
            "componentType" : 5126, 
            "count" : 3324, 
            "max" : [
                0.999847412109375, 
                0.999969482421875, 
                0.99993896484375
            ], 
            "min" : [
                -0.999847412109375, 
                -0.99993896484375, 
                -0.99993896484375
            ], 
            "type" : "VEC3"
        }, 
        {
            "bufferView" : 7, 
            "componentType" : 5126, 
            "count" : 3324, 
            "max" : [
                0.14257270097732544, 
                1.0937871783971786
            ], 
            "min" : [
                -0.1422642022371292, 
                0.8404273986816406
            ], 
            "type" : "VEC2"
        }, 
        {
            "bufferView" : 8, 
            "componentType" : 5121, 
            "count" : 108, 
            "max" : [
                107
            ], 
            "min" : [
                0
            ], 
            "type" : "SCALAR"
        }, 
        {
            "bufferView" : 9, 
            "componentType" : 5126, 
            "count" : 108, 
            "max" : [
                0.1053197979927063, 
                0.09912914037704468, 
                -0.23488199710845947
            ], 
            "min" : [
                -0.054187968373298645, 
                -0.08283200860023499, 
                -0.5894036889076233
            ], 
            "type" : "VEC3"
        }, 
        {
            "bufferView" : 10, 
            "componentType" : 5126, 
            "count" : 108, 
            "max" : [
                0.940031111240387, 
                0.9114353060722351, 
                0.6983245611190796
            ], 
            "min" : [
                -0.9892879724502563, 
                -0.9551683068275452, 
                -0.634998619556427
            ], 
            "type" : "VEC3"
        }, 
        {
            "bufferView" : 11, 
            "componentType" : 5126, 
            "count" : 108, 
            "max" : [
                0.16265690326690674, 
                1.0199274402111769
            ], 
            "min" : [
                -0.17093360424041748, 
                0.8264126032590866
            ], 
            "type" : "VEC2"
        }, 
        {
            "bufferView" : 12, 
            "componentType" : 5123, 
            "count" : 10620, 
            "max" : [
                7087
            ], 
            "min" : [
                0
            ], 
            "type" : "SCALAR"
        }, 
        {
            "bufferView" : 13, 
            "componentType" : 5126, 
            "count" : 7088, 
            "max" : [
                0.5576205253601074, 
                0.5843104124069214, 
                0.2214082032442093
            ], 
            "min" : [
                -0.5653821229934692, 
                -0.5649423003196716, 
                -0.18517659604549408
            ], 
            "type" : "VEC3"
        }, 
        {
            "bufferView" : 14, 
            "componentType" : 5126, 
            "count" : 7088, 
            "max" : [
                0.9998779296875, 
                0.9998779296875, 
                0.999664306640625
            ], 
            "min" : [
                -0.9998779296875, 
                -0.9998779296875, 
                -0.9993896484375
            ], 
            "type" : "VEC3"
        }, 
        {
            "bufferView" : 15, 
            "componentType" : 5126, 
            "count" : 7088, 
            "max" : [
                0.16652460396289825, 
                1.0849740505218506
            ], 
            "min" : [
                -0.1664344072341919, 
                0.8226847052574158
            ], 
            "type" : "VEC2"
        }, 
        {
            "bufferView" : 16, 
            "componentType" : 5123, 
            "count" : 4896, 
            "max" : [
                3215
            ], 
            "min" : [
                0
            ], 
            "type" : "SCALAR"
        }, 
        {
            "bufferView" : 17, 
            "componentType" : 5126, 
            "count" : 3216, 
            "max" : [
                0.21282130479812622, 
                0.1880566030740738, 
                -0.14575199782848358
            ], 
            "min" : [
                -0.1761685013771057, 
                -0.24711020290851593, 
                -0.7124007940292358
            ], 
            "type" : "VEC3"
        }, 
        {
            "bufferView" : 18, 
            "componentType" : 5126, 
            "count" : 3216, 
            "max" : [
                0.9962157011032104, 
                0.99920654296875, 
                0.9972533583641052
            ], 
            "min" : [
                -0.9962157011032104, 
                -0.9988402724266052, 
                -0.9932554364204407
            ], 
            "type" : "VEC3"
        }, 
        {
            "bufferView" : 19, 
            "componentType" : 5126, 
            "count" : 3216, 
            "max" : [
                0.16754360496997833, 
                1.078241303563118
            ], 
            "min" : [
                -0.17274689674377441, 
                0.7969318926334381
            ], 
            "type" : "VEC2"
        }, 
        {
            "bufferView" : 20, 
            "componentType" : 5121, 
            "count" : 36, 
            "max" : [
                31
            ], 
            "min" : [
                0
            ], 
            "type" : "SCALAR"
        }, 
        {
            "bufferView" : 21, 
            "componentType" : 5126, 
            "count" : 32, 
            "max" : [
                0.9551057815551758, 
                0.91837078332901, 
                0.4111568033695221
            ], 
            "min" : [
                -1.014896035194397, 
                -0.8416308760643005, 
                0.15091119706630707
            ], 
            "type" : "VEC3"
        }, 
        {
            "bufferView" : 22, 
            "componentType" : 5126, 
            "count" : 32, 
            "max" : [
                0.5874508023262024, 
                0.617053747177124, 
                0.999908447265625
            ], 
            "min" : [
                -0.5775017738342285, 
                -0.7791375517845154, 
                -1.0
            ], 
            "type" : "VEC3"
        }, 
        {
            "bufferView" : 23, 
            "componentType" : 5126, 
            "count" : 32, 
            "max" : [
                0.12104389816522598, 
                1.0870822668075562
            ], 
            "min" : [
                -0.13631810247898102, 
                0.8629336059093475
            ], 
            "type" : "VEC2"
        }, 
        {
            "bufferView" : 24, 
            "componentType" : 5123, 
            "count" : 936, 
            "max" : [
                719
            ], 
            "min" : [
                0
            ], 
            "type" : "SCALAR"
        }, 
        {
            "bufferView" : 25, 
            "componentType" : 5126, 
            "count" : 720, 
            "max" : [
                0.5692443251609802, 
                0.5959342122077942, 
                0.18127989768981934
            ], 
            "min" : [
                -0.577005922794342, 
                -0.5765661001205444, 
                -0.2647733986377716
            ], 
            "type" : "VEC3"
        }, 
        {
            "bufferView" : 26, 
            "componentType" : 5126, 
            "count" : 720, 
            "max" : [
                1.0, 
                1.0, 
                1.0
            ], 
            "min" : [
                -1.0, 
                -1.0, 
                -0.999847412109375
            ], 
            "type" : "VEC3"
        }, 
        {
            "bufferView" : 27, 
            "componentType" : 5126, 
            "count" : 720, 
            "max" : [
                0.16131669282913208, 
                1.1047274023294449
            ], 
            "min" : [
                -0.15004940330982208, 
                0.8241032063961029
            ], 
            "type" : "VEC2"
        }
    ], 
    "asset" : {
        "generator" : "Khronos Blender glTF 2.0 exporter", 
        "version" : "2.0"
    }, 
    "bufferViews" : [
        {
            "buffer" : 0, 
            "byteLength" : 35964, 
            "byteOffset" : 0, 
            "target" : 34963
        }, 
        {
            "buffer" : 0, 
            "byteLength" : 135600, 
            "byteOffset" : 35964, 
            "target" : 34962
        }, 
        {
            "buffer" : 0, 
            "byteLength" : 135600, 
            "byteOffset" : 171564, 
            "target" : 34962
        }, 
        {
            "buffer" : 0, 
            "byteLength" : 90400, 
            "byteOffset" : 307164, 
            "target" : 34962
        }, 
        {
            "buffer" : 0, 
            "byteLength" : 9912, 
            "byteOffset" : 397564, 
            "target" : 34963
        }, 
        {
            "buffer" : 0, 
            "byteLength" : 39888, 
            "byteOffset" : 407476, 
            "target" : 34962
        }, 
        {
            "buffer" : 0, 
            "byteLength" : 39888, 
            "byteOffset" : 447364, 
            "target" : 34962
        }, 
        {
            "buffer" : 0, 
            "byteLength" : 26592, 
            "byteOffset" : 487252, 
            "target" : 34962
        }, 
        {
            "buffer" : 0, 
            "byteLength" : 108, 
            "byteOffset" : 513844, 
            "target" : 34963
        }, 
        {
            "buffer" : 0, 
            "byteLength" : 1296, 
            "byteOffset" : 513952, 
            "target" : 34962
        }, 
        {
            "buffer" : 0, 
            "byteLength" : 1296, 
            "byteOffset" : 515248, 
            "target" : 34962
        }, 
        {
            "buffer" : 0, 
            "byteLength" : 864, 
            "byteOffset" : 516544, 
            "target" : 34962
        }, 
        {
            "buffer" : 0, 
            "byteLength" : 21240, 
            "byteOffset" : 517408, 
            "target" : 34963
        }, 
        {
            "buffer" : 0, 
            "byteLength" : 85056, 
            "byteOffset" : 538648, 
            "target" : 34962
        }, 
        {
            "buffer" : 0, 
            "byteLength" : 85056, 
            "byteOffset" : 623704, 
            "target" : 34962
        }, 
        {
            "buffer" : 0, 
            "byteLength" : 56704, 
            "byteOffset" : 708760, 
            "target" : 34962
        }, 
        {
            "buffer" : 0, 
            "byteLength" : 9792, 
            "byteOffset" : 765464, 
            "target" : 34963
        }, 
        {
            "buffer" : 0, 
            "byteLength" : 38592, 
            "byteOffset" : 775256, 
            "target" : 34962
        }, 
        {
            "buffer" : 0, 
            "byteLength" : 38592, 
            "byteOffset" : 813848, 
            "target" : 34962
        }, 
        {
            "buffer" : 0, 
            "byteLength" : 25728, 
            "byteOffset" : 852440, 
            "target" : 34962
        }, 
        {
            "buffer" : 0, 
            "byteLength" : 36, 
            "byteOffset" : 878168, 
            "target" : 34963
        }, 
        {
            "buffer" : 0, 
            "byteLength" : 384, 
            "byteOffset" : 878204, 
            "target" : 34962
        }, 
        {
            "buffer" : 0, 
            "byteLength" : 384, 
            "byteOffset" : 878588, 
            "target" : 34962
        }, 
        {
            "buffer" : 0, 
            "byteLength" : 256, 
            "byteOffset" : 878972, 
            "target" : 34962
        }, 
        {
            "buffer" : 0, 
            "byteLength" : 1872, 
            "byteOffset" : 879228, 
            "target" : 34963
        }, 
        {
            "buffer" : 0, 
            "byteLength" : 8640, 
            "byteOffset" : 881100, 
            "target" : 34962
        }, 
        {
            "buffer" : 0, 
            "byteLength" : 8640, 
            "byteOffset" : 889740, 
            "target" : 34962
        }, 
        {
            "buffer" : 0, 
            "byteLength" : 5760, 
            "byteOffset" : 898380, 
            "target" : 34962
        }
    ], 
    "buffers" : [
        {
            "byteLength" : 904140, 
            "uri" : "scene.bin"
        }
    ], 
    "cameras" : [
        {
            "name" : "Camera", 
            "perspective" : {
                "aspectRatio" : 1.7777777777777777, 
                "yfov" : 0.5033799372418416, 
                "zfar" : 100.0, 
                "znear" : 0.10000000149011612
            }, 
            "type" : "perspective"
        }
    ], 
    "materials" : [
        {
            "name" : "mat16", 
            "pbrMetallicRoughness" : {
                "baseColorFactor" : [
                    0.4699999988079071, 
                    0.5600000023841858, 
                    0.6100000143051147, 
                    1.0
                ], 
                "metallicFactor" : 0.0
            }
        }, 
        {
            "name" : "mat17", 
            "pbrMetallicRoughness" : {
                "baseColorFactor" : [
                    0.27000001072883606, 
                    0.3499999940395355, 
                    0.38999998569488525, 
                    1.0
                ], 
                "metallicFactor" : 0.0
            }
        }, 
        {
            "name" : "mat18", 
            "pbrMetallicRoughness" : {
                "baseColorFactor" : [
                    1.0, 
                    0.800000011920929, 
                    0.5299999713897705, 
                    1.0
                ], 
                "metallicFactor" : 0.0
            }
        }, 
        {
            "name" : "mat20", 
            "pbrMetallicRoughness" : {
                "baseColorFactor" : [
                    0.4699999988079071, 
                    0.33000001311302185, 
                    0.2800000011920929, 
                    1.0
                ], 
                "metallicFactor" : 0.0
            }
        }, 
        {
            "name" : "mat22", 
            "pbrMetallicRoughness" : {
                "baseColorFactor" : [
                    0.6200000047683716, 
                    0.6200000047683716, 
                    0.6200000047683716, 
                    1.0
                ], 
                "metallicFactor" : 0.0
            }
        }, 
        {
            "name" : "mat23", 
            "pbrMetallicRoughness" : {
                "baseColorFactor" : [
                    0.10000000149011612, 
                    0.10000000149011612, 
                    0.10000000149011612, 
                    1.0
                ], 
                "metallicFactor" : 0.0
            }
        }, 
        {
            "alphaMode" : "BLEND", 
            "name" : "mat25", 
            "pbrMetallicRoughness" : {
                "baseColorFactor" : [
                    0.9200000166893005, 
                    0.949999988079071, 
                    0.9399999976158142, 
                    0.4000000059604645
                ], 
                "metallicFactor" : 0.0
            }
        }
    ], 
    "meshes" : [
        {
            "name" : "mesh1835817667", 
            "primitives" : [
                {
                    "attributes" : {
                        "NORMAL" : 2, 
                        "POSITION" : 1, 
                        "TEXCOORD_0" : 3
                    }, 
                    "indices" : 0, 
                    "material" : 1
                }, 
                {
                    "attributes" : {
                        "NORMAL" : 6, 
                        "POSITION" : 5, 
                        "TEXCOORD_0" : 7
                    }, 
                    "indices" : 4, 
                    "material" : 0
                }, 
                {
                    "attributes" : {
                        "NORMAL" : 10, 
                        "POSITION" : 9, 
                        "TEXCOORD_0" : 11
                    }, 
                    "indices" : 8, 
                    "material" : 6
                }, 
                {
                    "attributes" : {
                        "NORMAL" : 14, 
                        "POSITION" : 13, 
                        "TEXCOORD_0" : 15
                    }, 
                    "indices" : 12, 
                    "material" : 3
                }, 
                {
                    "attributes" : {
                        "NORMAL" : 18, 
                        "POSITION" : 17, 
                        "TEXCOORD_0" : 19
                    }, 
                    "indices" : 16, 
                    "material" : 4
                }, 
                {
                    "attributes" : {
                        "NORMAL" : 22, 
                        "POSITION" : 21, 
                        "TEXCOORD_0" : 23
                    }, 
                    "indices" : 20, 
                    "material" : 2
                }, 
                {
                    "attributes" : {
                        "NORMAL" : 26, 
                        "POSITION" : 25, 
                        "TEXCOORD_0" : 27
                    }, 
                    "indices" : 24, 
                    "material" : 5
                }
            ]
        }
    ], 
    "nodes" : [
        {
            "camera" : 0, 
            "name" : "Correction_Camera", 
            "rotation" : [
                -0.7071067690849304, 
                -0.0, 
                0.0, 
                0.7071067690849304
            ]
        }, 
        {
            "children" : [
                0
            ], 
            "name" : "Camera", 
            "rotation" : [
                0.48170700669288635, 
                0.3342514932155609, 
                -0.21292175352573395, 
                0.7816000580787659
            ], 
            "scale" : [
                1.0, 
                1.0, 
                0.9999999403953552
            ], 
            "translation" : [
                7.481131553649902, 
                5.34366512298584, 
                6.5076398849487305
            ]
        }, 
        {
            "name" : "Lamp", 
            "rotation" : [
                0.16907575726509094, 
                0.7558802962303162, 
                -0.27217137813568115, 
                0.570947527885437
            ], 
            "scale" : [
                1.0, 
                1.0, 
                0.9999999403953552
            ], 
            "translation" : [
                4.076245307922363, 
                5.903861999511719, 
                -1.0054539442062378
            ]
        }, 
        {
            "mesh" : 0, 
            "name" : "mesh1835817667", 
            "rotation" : [
                0.7071068286895752, 
                0.0, 
                -0.0, 
                0.7071067094802856
            ], 
            "translation" : [
                0.0, 
                0.3802402913570404, 
                -0.0
            ]
        }
    ], 
    "scene" : 0, 
    "scenes" : [
        {
            "name" : "Scene", 
            "nodes" : [
                3, 
                2, 
                1
            ]
        }
    ]
}
