{
    "accessors" : [
        {
            "bufferView" : 0, 
            "componentType" : 5123, 
            "count" : 558, 
            "max" : [
                489
            ], 
            "min" : [
                0
            ], 
            "type" : "SCALAR"
        }, 
        {
            "bufferView" : 1, 
            "componentType" : 5126, 
            "count" : 490, 
            "max" : [
                0.05049106106162071, 
                0.14626389741897583, 
                0.3145228922367096
            ], 
            "min" : [
                -0.1578029990196228, 
                -0.11829269677400589, 
                -0.010233880020678043
            ], 
            "type" : "VEC3"
        }, 
        {
            "bufferView" : 2, 
            "componentType" : 5126, 
            "count" : 490, 
            "max" : [
                0.9927365779876709, 
                0.9985045790672302, 
                0.9957579374313354
            ], 
            "min" : [
                -0.9985350966453552, 
                -0.9882198572158813, 
                -0.9978942275047302
            ], 
            "type" : "VEC3"
        }, 
        {
            "bufferView" : 3, 
            "componentType" : 5126, 
            "count" : 490, 
            "max" : [
                0.19354000687599182, 
                1.16582690179348
            ], 
            "min" : [
                -0.19062109291553497, 
                0.8012112975120544
            ], 
            "type" : "VEC2"
        }, 
        {
            "bufferView" : 4, 
            "componentType" : 5123, 
            "count" : 390, 
            "max" : [
                303
            ], 
            "min" : [
                0
            ], 
            "type" : "SCALAR"
        }, 
        {
            "bufferView" : 5, 
            "componentType" : 5126, 
            "count" : 304, 
            "max" : [
                0.11200830340385437, 
                0.12062279880046844, 
                0.6126434803009033
            ], 
            "min" : [
                -0.06142215058207512, 
                -0.16440649330615997, 
                0.1557645946741104
            ], 
            "type" : "VEC3"
        }, 
        {
            "bufferView" : 6, 
            "componentType" : 5126, 
            "count" : 304, 
            "max" : [
                0.982329785823822, 
                0.9713431000709534, 
                0.765038013458252
            ], 
            "min" : [
                -0.9953306913375854, 
                -0.9660634398460388, 
                -0.982695996761322
            ], 
            "type" : "VEC3"
        }, 
        {
            "bufferView" : 7, 
            "componentType" : 5126, 
            "count" : 304, 
            "max" : [
                0.1792847067117691, 
                1.0848988071084023
            ], 
            "min" : [
                -0.17729200422763824, 
                0.8291033059358597
            ], 
            "type" : "VEC2"
        }, 
        {
            "bufferView" : 8, 
            "componentType" : 5123, 
            "count" : 396, 
            "max" : [
                287
            ], 
            "min" : [
                0
            ], 
            "type" : "SCALAR"
        }, 
        {
            "bufferView" : 9, 
            "componentType" : 5126, 
            "count" : 288, 
            "max" : [
                0.13475370407104492, 
                0.13501960039138794, 
                0.5500469207763672
            ], 
            "min" : [
                -0.022489730268716812, 
                -0.21389049291610718, 
                0.2188040018081665
            ], 
            "type" : "VEC3"
        }, 
        {
            "bufferView" : 10, 
            "componentType" : 5126, 
            "count" : 288, 
            "max" : [
                0.9682912826538086, 
                0.9803155660629272, 
                0.9477217793464661
            ], 
            "min" : [
                -0.774254560470581, 
                -0.9067964553833008, 
                -0.9946897625923157
            ], 
            "type" : "VEC3"
        }, 
        {
            "bufferView" : 11, 
            "componentType" : 5126, 
            "count" : 288, 
            "max" : [
                0.17304100096225739, 
                1.1358397006988525
            ], 
            "min" : [
                -0.1686238944530487, 
                0.8164920061826706
            ], 
            "type" : "VEC2"
        }, 
        {
            "bufferView" : 12, 
            "componentType" : 5121, 
            "count" : 132, 
            "max" : [
                121
            ], 
            "min" : [
                0
            ], 
            "type" : "SCALAR"
        }, 
        {
            "bufferView" : 13, 
            "componentType" : 5126, 
            "count" : 122, 
            "max" : [
                0.1111007034778595, 
                0.08297867327928543, 
                0.5957226753234863
            ], 
            "min" : [
                -0.10162709653377533, 
                -0.10678569972515106, 
                0.18000079691410065
            ], 
            "type" : "VEC3"
        }, 
        {
            "bufferView" : 14, 
            "componentType" : 5126, 
            "count" : 122, 
            "max" : [
                0.9888912439346313, 
                0.999298095703125, 
                0.9945982098579407
            ], 
            "min" : [
                -0.9570909738540649, 
                -0.9882808923721313, 
                -0.9789727330207825
            ], 
            "type" : "VEC3"
        }, 
        {
            "bufferView" : 15, 
            "componentType" : 5126, 
            "count" : 122, 
            "max" : [
                0.17551730573177338, 
                1.1553985029459
            ], 
            "min" : [
                -0.17574210464954376, 
                0.8146059066057205
            ], 
            "type" : "VEC2"
        }, 
        {
            "bufferView" : 16, 
            "componentType" : 5121, 
            "count" : 132, 
            "max" : [
                79
            ], 
            "min" : [
                0
            ], 
            "type" : "SCALAR"
        }, 
        {
            "bufferView" : 17, 
            "componentType" : 5126, 
            "count" : 80, 
            "max" : [
                0.02271788939833641, 
                0.07114017009735107, 
                0.398329496383667
            ], 
            "min" : [
                -0.0976981595158577, 
                -0.05118736997246742, 
                -0.24180670082569122
            ], 
            "type" : "VEC3"
        }, 
        {
            "bufferView" : 18, 
            "componentType" : 5126, 
            "count" : 80, 
            "max" : [
                0.9974974989891052, 
                0.9932249188423157, 
                0.9988097548484802
            ], 
            "min" : [
                -0.9974974989891052, 
                -0.9973754286766052, 
                -0.9988097548484802
            ], 
            "type" : "VEC3"
        }, 
        {
            "bufferView" : 19, 
            "componentType" : 5126, 
            "count" : 80, 
            "max" : [
                0.21136559545993805, 
                1.053313560783863
            ], 
            "min" : [
                -0.21136559545993805, 
                0.7782042026519775
            ], 
            "type" : "VEC2"
        }, 
        {
            "bufferView" : 20, 
            "componentType" : 5123, 
            "count" : 444, 
            "max" : [
                397
            ], 
            "min" : [
                0
            ], 
            "type" : "SCALAR"
        }, 
        {
            "bufferView" : 21, 
            "componentType" : 5126, 
            "count" : 398, 
            "max" : [
                0.2946420907974243, 
                0.13832339644432068, 
                -0.04008007049560547
            ], 
            "min" : [
                -0.30964431166648865, 
                -0.11213389784097672, 
                -0.526493489742279
            ], 
            "type" : "VEC3"
        }, 
        {
            "bufferView" : 22, 
            "componentType" : 5126, 
            "count" : 398, 
            "max" : [
                0.9674672484397888, 
                0.999237060546875, 
                0.9988707900047302
            ], 
            "min" : [
                -0.9901730418205261, 
                -0.999237060546875, 
                -0.9898678660392761
            ], 
            "type" : "VEC3"
        }, 
        {
            "bufferView" : 23, 
            "componentType" : 5126, 
            "count" : 398, 
            "max" : [
                0.22128170728683472, 
                1.1473685055971146
            ], 
            "min" : [
                -0.23646560311317444, 
                0.7523315995931625
            ], 
            "type" : "VEC2"
        }, 
        {
            "bufferView" : 24, 
            "componentType" : 5123, 
            "count" : 990, 
            "max" : [
                719
            ], 
            "min" : [
                0
            ], 
            "type" : "SCALAR"
        }, 
        {
            "bufferView" : 25, 
            "componentType" : 5126, 
            "count" : 720, 
            "max" : [
                0.3590553104877472, 
                0.6216776967048645, 
                0.08324182033538818
            ], 
            "min" : [
                -0.3876473009586334, 
                -0.6200119256973267, 
                -0.5761777758598328
            ], 
            "type" : "VEC3"
        }, 
        {
            "bufferView" : 26, 
            "componentType" : 5126, 
            "count" : 720, 
            "max" : [
                0.9930112361907959, 
                0.9905392527580261, 
                0.9231238961219788
            ], 
            "min" : [
                -0.9954222440719604, 
                -0.9955137968063354, 
                -0.9844355583190918
            ], 
            "type" : "VEC3"
        }, 
        {
            "bufferView" : 27, 
            "componentType" : 5126, 
            "count" : 720, 
            "max" : [
                0.24801670014858246, 
                1.2229208052158356
            ], 
            "min" : [
                -0.25041359663009644, 
                0.7437838017940521
            ], 
            "type" : "VEC2"
        }, 
        {
            "bufferView" : 28, 
            "componentType" : 5121, 
            "count" : 96, 
            "max" : [
                79
            ], 
            "min" : [
                0
            ], 
            "type" : "SCALAR"
        }, 
        {
            "bufferView" : 29, 
            "componentType" : 5126, 
            "count" : 80, 
            "max" : [
                0.2736522853374481, 
                0.43835631012916565, 
                -0.07686495780944824
            ], 
            "min" : [
                -0.2687912881374359, 
                -0.40532851219177246, 
                -0.5063169002532959
            ], 
            "type" : "VEC3"
        }, 
        {
            "bufferView" : 30, 
            "componentType" : 5126, 
            "count" : 80, 
            "max" : [
                0.9322488903999329, 
                0.9241004586219788, 
                0.9984130263328552
            ], 
            "min" : [
                -0.9323099255561829, 
                -0.9662160277366638, 
                -0.9512314200401306
            ], 
            "type" : "VEC3"
        }, 
        {
            "bufferView" : 31, 
            "componentType" : 5126, 
            "count" : 80, 
            "max" : [
                0.21604450047016144, 
                1.1287409961223602
            ], 
            "min" : [
                -0.23096010088920593, 
                0.8206370025873184
            ], 
            "type" : "VEC2"
        }
    ], 
    "asset" : {
        "generator" : "Khronos Blender glTF 2.0 exporter", 
        "version" : "2.0"
    }, 
    "bufferViews" : [
        {
            "buffer" : 0, 
            "byteLength" : 1116, 
            "byteOffset" : 0, 
            "target" : 34963
        }, 
        {
            "buffer" : 0, 
            "byteLength" : 5880, 
            "byteOffset" : 1116, 
            "target" : 34962
        }, 
        {
            "buffer" : 0, 
            "byteLength" : 5880, 
            "byteOffset" : 6996, 
            "target" : 34962
        }, 
        {
            "buffer" : 0, 
            "byteLength" : 3920, 
            "byteOffset" : 12876, 
            "target" : 34962
        }, 
        {
            "buffer" : 0, 
            "byteLength" : 780, 
            "byteOffset" : 16796, 
            "target" : 34963
        }, 
        {
            "buffer" : 0, 
            "byteLength" : 3648, 
            "byteOffset" : 17576, 
            "target" : 34962
        }, 
        {
            "buffer" : 0, 
            "byteLength" : 3648, 
            "byteOffset" : 21224, 
            "target" : 34962
        }, 
        {
            "buffer" : 0, 
            "byteLength" : 2432, 
            "byteOffset" : 24872, 
            "target" : 34962
        }, 
        {
            "buffer" : 0, 
            "byteLength" : 792, 
            "byteOffset" : 27304, 
            "target" : 34963
        }, 
        {
            "buffer" : 0, 
            "byteLength" : 3456, 
            "byteOffset" : 28096, 
            "target" : 34962
        }, 
        {
            "buffer" : 0, 
            "byteLength" : 3456, 
            "byteOffset" : 31552, 
            "target" : 34962
        }, 
        {
            "buffer" : 0, 
            "byteLength" : 2304, 
            "byteOffset" : 35008, 
            "target" : 34962
        }, 
        {
            "buffer" : 0, 
            "byteLength" : 132, 
            "byteOffset" : 37312, 
            "target" : 34963
        }, 
        {
            "buffer" : 0, 
            "byteLength" : 1464, 
            "byteOffset" : 37444, 
            "target" : 34962
        }, 
        {
            "buffer" : 0, 
            "byteLength" : 1464, 
            "byteOffset" : 38908, 
            "target" : 34962
        }, 
        {
            "buffer" : 0, 
            "byteLength" : 976, 
            "byteOffset" : 40372, 
            "target" : 34962
        }, 
        {
            "buffer" : 0, 
            "byteLength" : 132, 
            "byteOffset" : 41348, 
            "target" : 34963
        }, 
        {
            "buffer" : 0, 
            "byteLength" : 960, 
            "byteOffset" : 41480, 
            "target" : 34962
        }, 
        {
            "buffer" : 0, 
            "byteLength" : 960, 
            "byteOffset" : 42440, 
            "target" : 34962
        }, 
        {
            "buffer" : 0, 
            "byteLength" : 640, 
            "byteOffset" : 43400, 
            "target" : 34962
        }, 
        {
            "buffer" : 0, 
            "byteLength" : 888, 
            "byteOffset" : 44040, 
            "target" : 34963
        }, 
        {
            "buffer" : 0, 
            "byteLength" : 4776, 
            "byteOffset" : 44928, 
            "target" : 34962
        }, 
        {
            "buffer" : 0, 
            "byteLength" : 4776, 
            "byteOffset" : 49704, 
            "target" : 34962
        }, 
        {
            "buffer" : 0, 
            "byteLength" : 3184, 
            "byteOffset" : 54480, 
            "target" : 34962
        }, 
        {
            "buffer" : 0, 
            "byteLength" : 1980, 
            "byteOffset" : 57664, 
            "target" : 34963
        }, 
        {
            "buffer" : 0, 
            "byteLength" : 8640, 
            "byteOffset" : 59644, 
            "target" : 34962
        }, 
        {
            "buffer" : 0, 
            "byteLength" : 8640, 
            "byteOffset" : 68284, 
            "target" : 34962
        }, 
        {
            "buffer" : 0, 
            "byteLength" : 5760, 
            "byteOffset" : 76924, 
            "target" : 34962
        }, 
        {
            "buffer" : 0, 
            "byteLength" : 96, 
            "byteOffset" : 82684, 
            "target" : 34963
        }, 
        {
            "buffer" : 0, 
            "byteLength" : 960, 
            "byteOffset" : 82780, 
            "target" : 34962
        }, 
        {
            "buffer" : 0, 
            "byteLength" : 960, 
            "byteOffset" : 83740, 
            "target" : 34962
        }, 
        {
            "buffer" : 0, 
            "byteLength" : 640, 
            "byteOffset" : 84700, 
            "target" : 34962
        }
    ], 
    "buffers" : [
        {
            "byteLength" : 85340, 
            "uri" : "scene.bin"
        }
    ], 
    "cameras" : [
        {
            "name" : "Camera", 
            "perspective" : {
                "aspectRatio" : 1.7777777777777777, 
                "yfov" : 0.5033799372418416, 
                "zfar" : 100.0, 
                "znear" : 0.10000000149011612
            }, 
            "type" : "perspective"
        }
    ], 
    "materials" : [
        {
            "name" : "mat14", 
            "pbrMetallicRoughness" : {
                "baseColorFactor" : [
                    1.0, 
                    0.3400000035762787, 
                    0.12999999523162842, 
                    1.0
                ], 
                "metallicFactor" : 0.0
            }
        }, 
        {
            "name" : "mat17", 
            "pbrMetallicRoughness" : {
                "baseColorFactor" : [
                    0.27000001072883606, 
                    0.3499999940395355, 
                    0.38999998569488525, 
                    1.0
                ], 
                "metallicFactor" : 0.0
            }
        }, 
        {
            "name" : "mat18", 
            "pbrMetallicRoughness" : {
                "baseColorFactor" : [
                    1.0, 
                    0.800000011920929, 
                    0.5299999713897705, 
                    1.0
                ], 
                "metallicFactor" : 0.0
            }
        }, 
        {
            "name" : "mat20", 
            "pbrMetallicRoughness" : {
                "baseColorFactor" : [
                    0.4699999988079071, 
                    0.33000001311302185, 
                    0.2800000011920929, 
                    1.0
                ], 
                "metallicFactor" : 0.0
            }
        }, 
        {
            "name" : "mat21", 
            "pbrMetallicRoughness" : {
                "metallicFactor" : 0.0
            }
        }
    ], 
    "meshes" : [
        {
            "name" : "mesh1321482462", 
            "primitives" : [
                {
                    "attributes" : {
                        "NORMAL" : 2, 
                        "POSITION" : 1, 
                        "TEXCOORD_0" : 3
                    }, 
                    "indices" : 0, 
                    "material" : 2
                }, 
                {
                    "attributes" : {
                        "NORMAL" : 6, 
                        "POSITION" : 5, 
                        "TEXCOORD_0" : 7
                    }, 
                    "indices" : 4, 
                    "material" : 0
                }, 
                {
                    "attributes" : {
                        "NORMAL" : 10, 
                        "POSITION" : 9, 
                        "TEXCOORD_0" : 11
                    }, 
                    "indices" : 8, 
                    "material" : 4
                }, 
                {
                    "attributes" : {
                        "NORMAL" : 14, 
                        "POSITION" : 13, 
                        "TEXCOORD_0" : 15
                    }, 
                    "indices" : 12, 
                    "material" : 1
                }
            ]
        }, 
        {
            "name" : "mesh219294888", 
            "primitives" : [
                {
                    "attributes" : {
                        "NORMAL" : 18, 
                        "POSITION" : 17, 
                        "TEXCOORD_0" : 19
                    }, 
                    "indices" : 16, 
                    "material" : 3
                }, 
                {
                    "attributes" : {
                        "NORMAL" : 22, 
                        "POSITION" : 21, 
                        "TEXCOORD_0" : 23
                    }, 
                    "indices" : 20, 
                    "material" : 0
                }, 
                {
                    "attributes" : {
                        "NORMAL" : 26, 
                        "POSITION" : 25, 
                        "TEXCOORD_0" : 27
                    }, 
                    "indices" : 24, 
                    "material" : 4
                }, 
                {
                    "attributes" : {
                        "NORMAL" : 30, 
                        "POSITION" : 29, 
                        "TEXCOORD_0" : 31
                    }, 
                    "indices" : 28, 
                    "material" : 1
                }
            ]
        }
    ], 
    "nodes" : [
        {
            "camera" : 0, 
            "name" : "Correction_Camera", 
            "rotation" : [
                -0.7071067690849304, 
                -0.0, 
                0.0, 
                0.7071067690849304
            ]
        }, 
        {
            "children" : [
                0
            ], 
            "name" : "Camera", 
            "rotation" : [
                0.48170700669288635, 
                0.3342514932155609, 
                -0.21292175352573395, 
                0.7816000580787659
            ], 
            "scale" : [
                1.0, 
                1.0, 
                0.9999999403953552
            ], 
            "translation" : [
                7.481131553649902, 
                5.34366512298584, 
                6.5076398849487305
            ]
        }, 
        {
            "name" : "Lamp", 
            "rotation" : [
                0.16907575726509094, 
                0.7558802962303162, 
                -0.27217137813568115, 
                0.570947527885437
            ], 
            "scale" : [
                1.0, 
                1.0, 
                0.9999999403953552
            ], 
            "translation" : [
                4.076245307922363, 
                5.903861999511719, 
                -1.0054539442062378
            ]
        }, 
        {
            "mesh" : 0, 
            "name" : "mesh1321482462", 
            "rotation" : [
                0.7071068286895752, 
                0.0, 
                -0.0, 
                0.7071067094802856
            ]
        }, 
        {
            "mesh" : 1, 
            "name" : "mesh219294888", 
            "rotation" : [
                0.7071068286895752, 
                0.0, 
                -0.0, 
                0.7071067094802856
            ]
        }
    ], 
    "scene" : 0, 
    "scenes" : [
        {
            "name" : "Scene", 
            "nodes" : [
                4, 
                3, 
                2, 
                1
            ]
        }
    ]
}
